<svg width="215" height="69" viewBox="0 0 215 69" fill="none" xmlns="http://www.w3.org/2000/svg">
<path d="M81.87 31.5373H78.9329V38.5298H74.1917V19.0581H81.87C86.641 19.0581 89.0266 21.7418 89.0266 25.3201C89.0266 28.5405 86.8349 31.5373 81.87 31.5373ZM81.5122 27.7652C83.3908 27.7652 84.1959 26.8259 84.1959 25.3201C84.1959 23.8291 83.3908 22.8749 81.5122 22.8749H78.9329V27.7503H81.5122V27.7652Z" fill="#1E1E1E"/>
<path d="M97.3756 22.8306C99.6717 22.8306 101.312 23.8891 102.147 25.2459V23.0542H106.888V38.5302H102.147V36.3385C101.282 37.6953 99.6568 38.7539 97.3458 38.7539C93.5737 38.7539 90.5471 35.6527 90.5471 30.7624C90.5471 25.8721 93.5737 22.8306 97.3756 22.8306ZM98.7622 26.9605C96.988 26.9605 95.3778 28.2874 95.3778 30.7624C95.3778 33.2374 96.988 34.609 98.7622 34.609C100.566 34.609 102.147 33.2523 102.147 30.7773C102.147 28.3023 100.566 26.9605 98.7622 26.9605Z" fill="#1E1E1E"/>
<path d="M117.146 22.8306C121.022 22.8306 123.78 24.9626 124.571 28.6602H119.516C119.129 27.5718 118.353 26.8859 117.041 26.8859C115.357 26.8859 114.179 28.2129 114.179 30.7922C114.179 33.3715 115.342 34.6985 117.041 34.6985C118.339 34.6985 119.099 34.0574 119.516 32.9243H124.571C123.766 36.5025 121.022 38.7539 117.146 38.7539C112.598 38.7539 109.378 35.6974 109.378 30.7922C109.393 25.9019 112.598 22.8306 117.146 22.8306Z" fill="#1E1E1E"/>
<path d="M127.105 18H131.846V29.3461L136.528 23.0543H142.373L135.932 30.8221L142.417 38.5303H136.543L131.832 32.0447V38.5303H127.09V18H127.105Z" fill="#1E1E1E"/>
<path d="M159.474 23.7697C159.503 22.7111 158.862 22.2191 158.027 22.2191C157.148 22.2191 156.477 22.7707 156.477 23.6057C156.477 24.4108 156.999 25.2159 158.027 26.2894L162.769 30.9262C162.873 30.6727 163.022 30.4342 163.126 30.1509L164.155 28.4065H168.896L167.569 30.8218C167.048 31.9848 166.466 33.0135 165.855 33.923L170.536 38.53H165.02L163.216 36.7856C161.442 38.1424 159.339 38.8431 156.775 38.8431C152.257 38.8431 149.395 36.4874 149.395 32.8793C149.395 30.4938 150.677 28.4214 153.361 27.1392C152.362 25.9464 152.004 24.8879 152.004 23.6504C152.004 20.9071 154.196 18.6855 158.072 18.6855C162.038 18.6855 164.006 21.1009 163.917 23.7846H159.474V23.7697ZM160.308 33.9528L155.985 29.7633C154.658 30.4491 153.987 31.4331 153.987 32.5364C153.987 33.8932 155.12 35.0114 157.014 35.0114C158.281 34.9965 159.369 34.6387 160.308 33.9528Z" fill="#1E1E1E"/>
<path d="M196.3 25.2162H191.052C190.336 23.9191 188.994 23.2183 187.22 23.2183C184.164 23.2183 182.151 25.3802 182.151 28.7647C182.151 32.3727 184.208 34.475 187.608 34.475C189.964 34.475 191.604 33.2226 192.319 31.0309H186.296V27.5421H196.613V31.9553C195.614 35.3099 192.364 38.6645 187.235 38.6645C181.406 38.6645 177.305 34.5943 177.305 28.7647C177.305 22.9351 181.376 18.835 187.205 18.835C191.902 18.835 195.286 21.2205 196.3 25.2162Z" fill="#1E1E1E"/>
<path d="M206.319 38.7392C201.772 38.7392 198.328 35.6828 198.328 30.7776C198.328 25.8724 201.846 22.8159 206.364 22.8159C210.911 22.8159 214.4 25.8724 214.4 30.7776C214.4 35.6828 210.866 38.7392 206.319 38.7392ZM206.319 34.6391C208.004 34.6391 209.584 33.3867 209.584 30.7925C209.584 28.1535 208.034 26.9309 206.364 26.9309C204.649 26.9309 203.143 28.1535 203.143 30.7925C203.158 33.3867 204.605 34.6391 206.319 34.6391Z" fill="#1E1E1E"/>
<path d="M48.8314 37.7684L51.7291 47.9471L47.0019 40.7643L43.785 35.902C45.0374 33.6796 45.8846 31.2117 46.2161 28.5964C46.3511 27.7001 46.4125 26.7915 46.4125 25.8706C46.4125 14.5131 37.216 5.31655 25.8585 5.31655C22.924 5.31655 20.1368 5.93047 17.6074 7.06008L13.1135 3.36428C16.883 1.21556 21.2295 0 25.8585 0C40.1506 0 51.7291 11.5785 51.7291 25.8706C51.7414 30.168 50.6977 34.2199 48.8314 37.7684Z" fill="#007F5F"/>
<path d="M43.9077 22.9611C43.7235 23.0471 41.5748 22.9734 40.6662 23.2312C39.7699 23.4891 34.6007 25.0607 33.7166 25.5887C33.4097 25.7237 30.7944 28.1917 29.6402 29.616C29.4806 29.7511 27.3073 31.9366 27.0863 32.3664C26.8776 32.8084 24.7534 36.9953 24.4465 39.5738C24.3605 40.1754 24.3973 41.4278 24.3605 41.7348C24.3114 42.0295 23.8448 42.6434 23.1327 41.9681C22.4205 41.2928 21.426 40.2982 20.898 38.5178C20.37 36.7375 18.3441 30.3159 18.2336 29.9352C18.1231 29.5546 15.6551 21.5368 15.6551 21.3404C15.6551 21.1316 14.9798 17.8165 13.1012 15.5695C12.34 14.6609 11.3209 13.4822 10.3631 12.3894C8.95112 10.7932 7.68645 9.36892 7.53911 9.25842C7.45316 9.19702 7.17075 8.85323 6.79012 8.38665C6.01658 7.42893 4.89925 5.91869 4.56773 5.07148C4.06432 3.81909 3.13116 2.06327 3.09432 1.96505C3.06977 1.86682 2.57863 1.09328 2.93471 0.909105C2.93471 0.909105 3.43812 0.479361 3.97837 0.786321C4.51862 1.09328 8.37404 3.22972 8.66872 3.37706C8.85289 3.46301 9.76149 4.16288 10.6701 4.92414C11.2103 5.37844 11.7506 5.8573 12.1312 6.26249C12.6224 6.77818 13.6046 7.72362 14.6237 8.66905C15.7042 9.6636 16.8461 10.6336 17.5214 11.0388C18.8107 11.8123 20.677 13.0402 23.7589 14.1452C26.8407 15.2257 31.7521 16.7605 33.5693 17.4604C35.3865 18.1725 41.2924 19.8424 42.3484 20.751C43.4043 21.6596 44.362 22.2981 43.9077 22.9611Z" fill="#007F5F"/>
<path d="M64.1916 68.145L42.2624 45.872L38.5052 42.0657L29.7998 33.2376L34.9445 28.1543L42.2992 38.2103L45.553 42.6551L64.1916 68.145Z" fill="#007F5F"/>
<path d="M52.8094 60.643L38.0385 48.6961C34.4163 50.6238 30.2662 51.7289 25.8706 51.7289C11.5785 51.7289 0 40.1503 0 25.8583C0 20.0383 1.91543 14.6604 5.16921 10.3384L8.49665 14.8937C6.49527 18.0615 5.32882 21.831 5.32882 25.846C5.32882 37.1912 14.5253 46.3878 25.8706 46.3878C28.535 46.3878 31.1012 45.8843 33.4341 44.9389C34.7356 44.4355 35.9634 43.7847 37.1176 43.0357L40.6906 47.0262L52.8094 60.643Z" fill="#007F5F"/>
</svg>
